<svg xmlns="http://www.w3.org/2000/svg" width="394" height="124.282" viewBox="0 0 394 124.282">
  <g id="OAF-Logo" transform="translate(-8 -37.969)">
    <g id="Group_2" data-name="Group 2" transform="translate(-210.677 17.373)">
      <g id="Group_1" data-name="Group 1" transform="translate(218.677 21.627)">
        <path id="Path_3" data-name="Path 3" d="M358.944,100.114v-.385a57.128,57.128,0,1,0-114.257,0l.009.289c-.019.251-.019.5-.019.752v.829a2.313,2.313,0,0,1,.019.366,57.17,57.17,0,0,0,39.483,53.326,7.5,7.5,0,0,0,1.562-2.815l.019-.039v-.1c.115-.559.27-1.157.4-1.87l.1-.347c.713-2.95,1.562-5.707,1.581-5.745.212-.733.4-1.311.559-1.7a10.068,10.068,0,0,1,1.118-1.851,2.95,2.95,0,0,1,2.41-1.157,4.092,4.092,0,0,1,1.272.212l.791.328-.039-.848a6.35,6.35,0,0,0-.1-.848,38.41,38.41,0,0,1-9.562-3.374v-.173a38.273,38.273,0,0,1,5.88-70.6l-.058-.154A38.488,38.488,0,0,1,319.3,66.6v.173a38.285,38.285,0,0,1-5.861,70.619l.039.154a38.058,38.058,0,0,1-17.717,1.33c-2.121,4.415-2.506,11.722-2.506,16.329,0,.6-.039,1.388-.1,2.236a56.525,56.525,0,0,0,8.656.655,57.115,57.115,0,0,0,57.1-56.075v-.3c0-.251.019-.482.019-.752V100.8A5.038,5.038,0,0,0,358.944,100.114Z" transform="translate(-244.677 -43.627)" fill="#cda8cf"/>
        <path id="Path_4" data-name="Path 4" d="M306.316,49.589a55.617,55.617,0,0,0-16.657,108.676,9.387,9.387,0,0,0,.578-1.369l.019-.039v-.1c.115-.559.27-1.157.4-1.87l.1-.347c.713-2.95,1.561-5.707,1.581-5.745.212-.733.4-1.311.559-1.7a10.073,10.073,0,0,1,1.118-1.851,2.95,2.95,0,0,1,2.41-1.157,4.1,4.1,0,0,1,1.272.212l.791.328-.039-.848a4.994,4.994,0,0,0-.791-2.66l3.663.328-.019.154c-3.027,3.952-3.528,12.763-3.528,18.026a4.907,4.907,0,0,1-.019.521,55.613,55.613,0,1,0,8.56-110.565Z" transform="translate(-249.173 -48.066)" fill="#5e2568"/>
        <path id="Path_5" data-name="Path 5" d="M315.094,153.143A39.165,39.165,0,1,1,354.26,192.3a39.167,39.167,0,0,1-39.166-39.157" transform="translate(-297.107 -96)" fill="#cda8cf" fill-rule="evenodd"/>
        <path id="Path_6" data-name="Path 6" d="M413.03,426.444c0-5.263.5-14.074,3.528-18.026l.019-.154-3.663-.328a4.994,4.994,0,0,1,.791,2.66l.039.848-.791-.328a4,4,0,0,0-1.272-.212,2.95,2.95,0,0,0-2.41,1.157,10.072,10.072,0,0,0-1.118,1.851c-.154.385-.328.964-.559,1.7-.019.039-.868,2.8-1.581,5.745l-.1.347c-.154.713-.289,1.311-.4,1.87v.1Z" transform="translate(-364.427 -314.876)" fill="#fff" fill-rule="evenodd"/>
        <path id="Path_7" data-name="Path 7" d="M321.358,157.864A37.546,37.546,0,1,1,358.914,195.4a37.546,37.546,0,0,1-37.556-37.536" transform="translate(-301.77 -100.72)" fill="#fff" fill-rule="evenodd"/>
        <path id="Path_8" data-name="Path 8" d="M332.754,165.4a34.529,34.529,0,1,1,34.529,34.529A34.529,34.529,0,0,1,332.754,165.4" transform="translate(-310.255 -108.587)" fill="#d5c195" fill-rule="evenodd"/>
        <path id="Path_9" data-name="Path 9" d="M369.089,158.369a40.234,40.234,0,0,0-8.271,7.461l2.93.193s.964-.655,1.234-.019-.4,1.157-.4,1.157l-2.1.019,1.06.713-1.5,1.889.039,3.008c0,.559,1.407,1.369,1.407,1.369a11.151,11.151,0,0,0,2.853.771c.887-.019,3.991-.482,5.938-.5s1.812,2.082,1.812,2.082a5.219,5.219,0,0,0-2.545-1.022,20.309,20.309,0,0,0-5.919.173,4.955,4.955,0,0,1-2.776-.443,3.265,3.265,0,0,0,.154,4.723c1.33,1.369,4.415,1.157,6.266.154a5.061,5.061,0,0,1,4.068.019,13.835,13.835,0,0,1-6.15,2.2c-2.911.6-5.032-.212-6.381-2.41-.308-1.562.193-3.277,1.562-5.167a17.587,17.587,0,0,0-1.33-1.446c-.328-.251-.443-2.1-.6-2.6a23.57,23.57,0,0,0-1.118-2.236,2.633,2.633,0,0,1,.1-3.335,59.849,59.849,0,0,1,8.7-7.288c-.521-1.735.135-3.258,1.966-4.589l4.126-2.66q3.268-9.746,12.647-9.466-10.064,2.256-10.6,9.929c-5.649,2.68-8.02,5.128-7.152,7.326" transform="translate(-329.624 -116.205)" fill="#5e2568" fill-rule="evenodd"/>
        <path id="Path_10" data-name="Path 10" d="M414.933,207.929l-4.087-.752a9.879,9.879,0,0,1-1.562,3.528c1.793-1.5,3.509-2.063,5.186-1.7Z" transform="translate(-367.236 -165.399)" fill="#5e2568" fill-rule="evenodd"/>
        <path id="Path_11" data-name="Path 11" d="M425.456,221.182q-9.427,10.411-7.288,24.62c.347-6.786,1.909-12.2,5.726-19.626.636-1.234,8.772-12.493,8.772-12.493l-5.128,5.205c.27-2.468,1.928-5.9,4.993-10.334-.771-5.822-2.545-9.369-5.379-10.584,2.236,2.41,3.566,6.169,3.914,11.278a18.121,18.121,0,0,0-5.61,11.934" transform="translate(-373.556 -158.544)" fill="#5e2568" fill-rule="evenodd"/>
        <path id="Path_12" data-name="Path 12" d="M438.19,150.955l3.335-1.677q3.47-6.1,13.669-6.054-13.013-1.417-17,7.731" transform="translate(-388.759 -117.641)" fill="#5e2568" fill-rule="evenodd"/>
        <path id="Path_13" data-name="Path 13" d="M484.38,150.248q13.042,1.764,19.877,11.837-6.131-13.418-19.877-11.837" transform="translate(-423.15 -122.891)" fill="#5e2568" fill-rule="evenodd"/>
        <path id="Path_14" data-name="Path 14" d="M484.293,171.789q1.938-9.2-3.007-10.122,3.673,2.8,1.349,8.367Z" transform="translate(-420.846 -131.515)" fill="#5e2568" fill-rule="evenodd"/>
        <path id="Path_15" data-name="Path 15" d="M464.939,171.723l-.115-2.506-2.256,1.079c.039-3.779,1.06-5.591,3.085-5.417,1.889.983,2.371,2.95,1.465,5.919-.6,1.118-1.311,1.427-2.179.925" transform="translate(-406.909 -133.898)" fill="#5e2568" fill-rule="evenodd"/>
        <path id="Path_16" data-name="Path 16" d="M512.23,170.12a15.067,15.067,0,0,1,1.272,2.969s3.239-.385,6.94,4.357c-2.314-5.841-6.555-7-8.213-7.326" transform="translate(-443.886 -137.808)" fill="#5e2568" fill-rule="evenodd"/>
        <path id="Path_17" data-name="Path 17" d="M521.991,190.04l-1.157-3.316a8.762,8.762,0,0,1,5.475,4.974c-2.159-2.275-4.029-1.889-4.319-1.658" transform="translate(-450.292 -150.171)" fill="#5e2568" fill-rule="evenodd"/>
        <path id="Path_18" data-name="Path 18" d="M499.022,174.875a19.9,19.9,0,0,1,3.8,11.683c.173,7.384,1.369,10.141,3.2,13.437-1.716-5.456-.771-10.121-.713-13.977s-3.027-8.56-6.285-11.143" transform="translate(-434.052 -141.349)" fill="#5e2568" fill-rule="evenodd"/>
        <path id="Path_19" data-name="Path 19" d="M531.626,208.913a19.436,19.436,0,0,1,.424,9.428,16.048,16.048,0,0,0,1.658,11.394c1.427,2.738,3.682,4.473,4.685,1.273a9.932,9.932,0,0,0-1.157-8.194,6.366,6.366,0,0,1-1.986,8.039c-1.1-1.812-.887-3.856-.829-7.442s.906-9.466-2.8-14.5" transform="translate(-458.327 -166.692)" fill="#5e2568" fill-rule="evenodd"/>
        <path id="Path_20" data-name="Path 20" d="M500.035,286.323a23.789,23.789,0,0,0,.039-2.429c-5.379-6.131-3.3-16.715-3.3-16.715-2.236,6.265-.116,14.691,2.1,17.737a11.488,11.488,0,0,0,1.157,1.407" transform="translate(-431.672 -210.074)" fill="#5e2568" fill-rule="evenodd"/>
        <path id="Path_21" data-name="Path 21" d="M530.536,221.908c-4.511-4.646-3.972-7.712-3.972-7.712-1.157,6.054,1.7,8.252,3.7,10.854s4.4,5.4,3.952,9.466c-2.352,12.551-9.119,14.286-13.322,11.953a8.785,8.785,0,0,1-.289,2.238c2.815,1.791,6.825,2.177,11.567-3.568,7.172-8.714,2.853-18.624-1.639-23.231" transform="translate(-450.123 -170.625)" fill="#5e2568" fill-rule="evenodd"/>
        <path id="Path_22" data-name="Path 22" d="M521.286,286.122s-.983.829-.443,4.087.655,7.422-2.2,6.825c0,0,1.157,2.969,2.7,1.754s1.6-3.759.829-6a16.954,16.954,0,0,1-.887-6.671" transform="translate(-448.662 -224.179)" fill="#5e2568" fill-rule="evenodd"/>
        <path id="Path_23" data-name="Path 23" d="M507.937,310.123s-.867,1.118-.81,5.437-.251,5.765-2.294,4.434c0,0,.424,3.567,1.986,2.834s2.333-4.145,1.928-6.323-1.407-4.126-.81-6.382" transform="translate(-438.378 -242.049)" fill="#5e2568" fill-rule="evenodd"/>
        <path id="Path_24" data-name="Path 24" d="M481.051,331.557a26.021,26.021,0,0,0-.617,5.032c-.039,2.6-1.311,5.4-3.528,5.938s-2.873-1.349-2.545-2.66c0,0-1.407,4.916,2.8,5.283,3.2.251,4.993-3.817,4.511-7.345a38.493,38.493,0,0,1-.617-6.247" transform="translate(-415.522 -258.008)" fill="#5e2568" fill-rule="evenodd"/>
        <path id="Path_25" data-name="Path 25" d="M449.206,277.594s2,15.115-4.878,21.477c-3.239,2.988-7.654,2.178-6.208-6.054,0,0-2.834,10.642,3.374,10.083s10.3-13.3,7.712-25.506" transform="translate(-388.226 -217.829)" fill="#5e2568" fill-rule="evenodd"/>
        <path id="Path_26" data-name="Path 26" d="M430.384,338.652s-3.605,6.131-.771,11.336c1,1.542,3.354,1.562,4.048.848-2.178,2.333-4.723,1.793-5.938-.675-1.774-3.663.867-9.7,2.66-11.509" transform="translate(-380.529 -263.29)" fill="#5e2568" fill-rule="evenodd"/>
        <path id="Path_27" data-name="Path 27" d="M495.394,215.385s5.514,11.645.27,21.361a23,23,0,0,0-.694-18.142s.019-.347-.482.27c-.385.52-1.041,1.6-1.561.6s1.947-5.109,2.468-4.087" transform="translate(-429.459 -171.39)" fill="#5e2568" fill-rule="evenodd"/>
        <path id="Path_28" data-name="Path 28" d="M554.668,199.932s5.051,4.164,5.9,16.889c0,0-.54-8.309-5.417-13.38-.1,2.738.521,5.167.926,5.533s.675-1.7.443-2.873c1.08,2.429,1.157,4.338.366,4.646s-3.1-3.74-2.217-10.815" transform="translate(-475.335 -160.005)" fill="#5e2568" fill-rule="evenodd"/>
        <path id="Path_29" data-name="Path 29" d="M456.888,322.283a22.539,22.539,0,0,0,1.851-2.2c.135,4.241-.039,5.321-2.66,8.811a10.121,10.121,0,0,0,.81-6.613" transform="translate(-402.077 -249.466)" fill="#5e2568" fill-rule="evenodd"/>
        <path id="Path_30" data-name="Path 30" d="M440.109,294.372c.308-.636,3.027-1.908,4.28-.193.482.829-3.8,7.538-10.2,10.3a24.188,24.188,0,0,0,7.153-7.519c1.06-1.87-1.889-1.311-1.234-2.584" transform="translate(-385.78 -229.537)" fill="#5e2568" fill-rule="evenodd"/>
        <path id="Path_31" data-name="Path 31" d="M432.091,466.608c.848-.347.983.077-.27.559-8.04,3.1-17.139,2.872-25.236,1.176a118.6,118.6,0,0,1-17.679-4.955l.771-1.716c0-.019,41.392,5.34,42.414,4.935" transform="translate(-352.064 -354.886)" fill="#deca95" fill-rule="evenodd"/>
        <path id="Path_32" data-name="Path 32" d="M400.3,405.849l.54-1.234c.829.4,8.81,4.319,13.11,5.784,9.254,3.181,17.717,5.244,23.829,5.244a47,47,0,0,0,8.7-.733,32.6,32.6,0,0,0,6.671-1.947c1.407-.578,3.7-3.046,4.608-4.183.521-.675.964-1.08.983-.713.6,5.456-5.822,9.158-14.826,10.334-9.138,1.2-17.91-2.988-26.412-4.9-11.143-2.564-17.2-7.654-17.2-7.654" transform="translate(-360.55 -312.403)" fill="#cda8cf" fill-rule="evenodd"/>
        <path id="Path_33" data-name="Path 33" d="M400.3,407.6l.636-1.022c.829.385,8.714,4.068,12.994,5.552,9.254,3.181,17.717,5.244,23.829,5.244a47.034,47.034,0,0,0,8.7-.733,31.234,31.234,0,0,0,9.08-3.085c.424-.154-.1.424-.289.6-2.6,2.333-8.81,3.991-11.7,4.357-9.158,1.176-17.563-1.35-26.065-3.3C406.357,412.689,400.3,407.6,400.3,407.6" transform="translate(-360.55 -313.865)" fill="#deca95" fill-rule="evenodd"/>
        <path id="Path_34" data-name="Path 34" d="M441.909,420.829l.655.983s.27.308-2.063,2.217c-1.851,1.523-5.764,4.569-8.309,5.495-8.078,2.93-16.676,2.352-25.082.443a97.638,97.638,0,0,1-17.525-5.514L393.5,411.71a126.889,126.889,0,0,0,12.126,5.475c9.35,3.22,15.038,5.032,24.157,5.109,7.885.038,12.127-1.465,12.127-1.465" transform="translate(-352.57 -317.686)" fill="#cda8cf" fill-rule="evenodd"/>
        <path id="Path_35" data-name="Path 35" d="M409.489,425.813c9.485,3.258,15.327,5.128,24.658,5.186,8.406.077,11.3-1.215,11.3-1.215s-5.225,4.781-9.852,6.5c-6.034,2.236-15.886,2.082-24.1.116a123.8,123.8,0,0,1-16.021-4.878L398.751,421a90.892,90.892,0,0,0,10.739,4.82" transform="translate(-356.953 -324.598)" fill="#deca95" fill-rule="evenodd"/>
        <path id="Path_36" data-name="Path 36" d="M455.079,401.294s-5.4,2.911-5.244,20.127c.058,6.979,1.793,10.141,1.793,10.141l-8.541-5.456-8.444,5.475s.906-7.153.906-10.083.116-15.4,4.319-18.546a.612.612,0,0,1,.482-.154c1.851.154,8.367.887,14.729-1.5" transform="translate(-386.118 -309.931)" fill="#deca95" fill-rule="evenodd"/>
        <path id="Path_37" data-name="Path 37" d="M430.945,430.935l.116-1.677c.019-.193.887-7.153.887-10.006,0-5.841.6-16.079,4.608-19.163a1.424,1.424,0,0,1,.964-.366h.154l.27.039c.829.077,2.217.193,3.991.193a28.8,28.8,0,0,0,10.121-1.677l.675,1.5c-.039.019-5.437,2.661-5.36,18.952.058,8,1,7.615,1.35,9.157l1.08,2.969-9.466-6.034Zm9.389-7.384,7.442,4.434c-1.176-3.605-1.484-3.2-1.542-8.811-.077-10.488,1.87-15.847,3.547-18.469a33.83,33.83,0,0,1-7.866.887h0c-1.832,0-3.258-.135-4.126-.193l-.193-.019c-2.487,1.889-3.952,8.579-4.338,17.852-.135,3.374-.578,4.492-.983,9.427Z" transform="translate(-383.364 -307.684)" fill="#cda8cf"/>
        <path id="Path_38" data-name="Path 38" d="M450.784,428.71l-5.726,3.8.039-.385c.521-5.071.4-3.451.4-5.4,0-9.119,1.446-15.558,4.049-18.122l.251.27c-2.526,2.487-3.933,8.83-3.933,17.852,0,1.909.135-.193-.385,5.051l5.3-3.489,5.552,3.663c-.945-2.6-1.369-2.41-1.349-5.3.116-7.769.983-14.131,2.988-18.334l.328.154c-2.005,4.145-3.008,10.43-2.95,18.18.019,2.294.771,3.663,1.774,6.825Z" transform="translate(-393.872 -315.157)" fill="#cda8cf"/>
        <path id="Path_39" data-name="Path 39" d="M378.491,419.036c.135-.636.27-1.253.443-1.889a.875.875,0,0,1,.1-.386c.733-3.008,1.6-5.764,1.6-5.764.212-.694.4-1.33.559-1.774a13.811,13.811,0,0,1,1.176-1.986,3.886,3.886,0,0,1,4.319-1.118c-.1-2.8-2.121-4.4-5.263-4.145s-4.241,3.817-4.3,5.495-1.986,2.641-3.046,3.412c-1.1.752-2.41.867-3.1,1.658-.733.771.945,2.236,2.564,1.639l1.272-.482a10.1,10.1,0,0,1-1.485,4.184,3.2,3.2,0,0,1-3.374.867s-.289,4.588,3.971,4.453c2.66-.1,3.972-2.178,4.589-4.106l-.019-.058" transform="translate(-337.948 -310.418)" fill="#deca95" fill-rule="evenodd"/>
        <path id="Path_40" data-name="Path 40" d="M372.062,422.2h0a4.08,4.08,0,0,1-3.085-1.2,5.608,5.608,0,0,1-1.234-3.837l.039-.713.694.212a3.2,3.2,0,0,0,.945.135,2.148,2.148,0,0,0,1.793-.81,8.04,8.04,0,0,0,1.215-3.007l-.347.135a2.875,2.875,0,0,1-.983.193,2.685,2.685,0,0,1-2.39-1.369,1.2,1.2,0,0,1,.173-1.33,4.925,4.925,0,0,1,1.793-1.06,6.949,6.949,0,0,0,1.427-.694,5.023,5.023,0,0,1,.578-.385c.983-.655,2.179-1.465,2.217-2.583.058-1.832,1.33-5.726,4.8-6.015.231-.019.463-.019.694-.019,3.1,0,5.109,1.793,5.186,4.723l.039.848-.791-.328a4,4,0,0,0-1.272-.212,2.95,2.95,0,0,0-2.41,1.157,10.07,10.07,0,0,0-1.118,1.851c-.154.385-.328.964-.559,1.7-.019.039-.868,2.8-1.581,5.745l-.1.347c-.154.713-.289,1.311-.4,1.87v.1l-.019.039c-.887,2.815-2.718,4.415-5.109,4.492Zm-3.2-4.338a4.247,4.247,0,0,0,.925,2.391,2.94,2.94,0,0,0,2.275.848h.154c2.39-.077,3.547-2.024,4.087-3.663v-.058c.116-.579.27-1.2.424-1.889a2.21,2.21,0,0,1,.116-.482c.733-2.95,1.581-5.707,1.6-5.745.231-.771.4-1.388.578-1.812l.019-.039a12.6,12.6,0,0,1,1.234-2.082,4.044,4.044,0,0,1,3.277-1.562,4.1,4.1,0,0,1,.848.077c-.366-1.831-1.812-2.892-4.01-2.892-.173,0-.385,0-.6.019-2.757.231-3.74,3.451-3.8,4.974-.038,1.677-1.581,2.7-2.7,3.451-.212.135-.385.251-.559.366a6.619,6.619,0,0,1-1.658.81,3.809,3.809,0,0,0-1.369.771c-.019.019-.039.039,0,.154a1.637,1.637,0,0,0,1.388.713,2.045,2.045,0,0,0,.6-.1l2.1-.829-.116.906a10.531,10.531,0,0,1-1.6,4.473,3.233,3.233,0,0,1-2.68,1.253,2.571,2.571,0,0,1-.534-.048Z" transform="translate(-336.299 -308.863)" fill="#cda8cf"/>
        <path id="Path_41" data-name="Path 41" d="M462.951,422.528l-1.137-.4v-3.47h.173a15.049,15.049,0,0,0,2.275,2.159,2.988,2.988,0,0,0,1.619.636,1.346,1.346,0,0,0,.925-.347,1.079,1.079,0,0,0,.347-.81,1.232,1.232,0,0,0-.251-.771,1.71,1.71,0,0,0-.752-.521v-.135a2.024,2.024,0,0,1,1.234.559,1.481,1.481,0,0,1,.424,1.118,1.63,1.63,0,0,1-.443,1.176,1.489,1.489,0,0,1-1.1.482,1.923,1.923,0,0,1-.867-.212,6.165,6.165,0,0,1-1.5-1.041c-.791-.713-1.253-1.157-1.427-1.35v1.542a3.742,3.742,0,0,0,.039.655,1.285,1.285,0,0,0,.135.347.774.774,0,0,0,.308.251Z" transform="translate(-406.348 -322.856)" fill="#5e2568"/>
        <path id="Path_42" data-name="Path 42" d="M461.576,436.987a4.3,4.3,0,0,1,1.716.309,2.626,2.626,0,0,1,1.08.81,1.529,1.529,0,0,1,.289.81,1.555,1.555,0,0,1-.694,1.214,3.7,3.7,0,0,1-2.314.656,4.44,4.44,0,0,1-1.735-.289,2.22,2.22,0,0,1-1.022-.752,1.363,1.363,0,0,1-.328-.887,1.6,1.6,0,0,1,.983-1.388,4.03,4.03,0,0,1,2.025-.483Zm-.116.848a5.256,5.256,0,0,0-1.966.309c-.443.173-.655.4-.655.733a.69.69,0,0,0,.212.482,1.251,1.251,0,0,0,.694.386,8.539,8.539,0,0,0,2.1.193,5.5,5.5,0,0,0,1.677-.212,1.476,1.476,0,0,0,.694-.4.669.669,0,0,0-.116-.964,2.22,2.22,0,0,0-1.138-.424,9.878,9.878,0,0,0-1.5-.1Z" transform="translate(-403.931 -336.505)" fill="#5e2568"/>
        <path id="Path_43" data-name="Path 43" d="M462.945,456.692l.694,1.427v.135h-4.955a2.039,2.039,0,0,0-.6.039.29.29,0,0,0-.193.173,1.207,1.207,0,0,0-.058.521h-.174v-2.2h.154a1.3,1.3,0,0,0,.058.54.3.3,0,0,0,.154.154,2.353,2.353,0,0,0,.636.039h3.2a3.975,3.975,0,0,0,.829-.039.4.4,0,0,0,.193-.116.577.577,0,0,0,.077-.193.946.946,0,0,0-.154-.443Z" transform="translate(-403.257 -351.178)" fill="#5e2568"/>
        <path id="Path_44" data-name="Path 44" d="M455.821,473.362H455.2v-.79h-1.542v-.713H455.2v-2.487h.559l3.875,2.718v.482h-3.817Zm0-1.5h2.892l-2.892-2.063Z" transform="translate(-400.278 -360.618)" fill="#5e2568"/>
        <path id="Path_45" data-name="Path 45" d="M281.865,140.625a2.924,2.924,0,0,1-.559.251l-.694-.867-.366-.366-1.947.964c-.675.386-1.157.694-1.5.868l-.193.1c-.212.1-.733.385-1.581.848l-.193.135-.655.328-.636.386-.328.193c-.347.193-.675.4-1,.617a1.243,1.243,0,0,0-.154.174c.019.058.019.1.039.154a.584.584,0,0,0,.077.154,7,7,0,0,0,.27.675l.039.135a1.226,1.226,0,0,1,.115.347,1.289,1.289,0,0,1-.27.173.648.648,0,0,1-.27.1c-.058-.077-.154-.231-.27-.4s-.173-.308-.212-.366c-.27-.655-.5-1.137-.655-1.446-.1-.135-.135-.27-.231-.424a2.415,2.415,0,0,0-.193-.385,11.039,11.039,0,0,0-.752-1.176,1.757,1.757,0,0,1-.212-.308,5.051,5.051,0,0,1-.251-.482c.077-.039.154-.1.231-.135.1-.039.193-.077.347-.135l.945,1.234a.262.262,0,0,0,.309.039l.27-.173.135-.077.328-.173.27-.135.058-.019a.345.345,0,0,1,.135-.1l.964-.54c.1-.058.154-.1.212-.135l.231-.116c.077-.039.173-.077.27-.135s.251-.154.521-.309c-.058-.154-.1-.289-.135-.385l-.617-1.137-.309-.54-.752-1.369-.771-1.311a2.532,2.532,0,0,0-.366-.521c-.173.1-.6.309-1.272.675l-.347.173-1.272.752-.482.366a.31.31,0,0,0-.058.173,6.738,6.738,0,0,0,.231,1.215,1.724,1.724,0,0,1,.058.308,2.259,2.259,0,0,1-.463.173.4.4,0,0,1-.116-.193l-.4-.733a11.515,11.515,0,0,0-.694-1.485c-.058-.116-.116-.193-.154-.27l-.578-.964a1.1,1.1,0,0,0-.154-.251,3.166,3.166,0,0,1-.366-.521c-.077-.154-.154-.309-.251-.54a5.784,5.784,0,0,1,.54-.27c.347.4.6.675.694.791a3.6,3.6,0,0,0,.424.328l.154-.039.154-.077.173-.116.116-.058a1.346,1.346,0,0,0,.251-.1l.193-.116c.212-.135.347-.212.366-.231l.964-.54.713-.4.964-.52c.231-.116.675-.386,1.349-.771l1.079-.617.887-.482c.173-.1.366-.193.617-.328a2.316,2.316,0,0,0-.1-.347,5.437,5.437,0,0,1-.27-1.234l.54-.328c.116.193.174.328.193.347.154.27.289.559.424.848a20.032,20.032,0,0,0,1.041,2.024,11.623,11.623,0,0,0,.983,1.542.853.853,0,0,1,.1.289,1.859,1.859,0,0,1-.54.212l-.443-.5-.424-.54a1.81,1.81,0,0,1-.193-.193,20.989,20.989,0,0,0-2.082,1.041l-.675.328a7.564,7.564,0,0,1-.925.6,6.079,6.079,0,0,0,.289.617l1.928,3.528.019.077.019.058c.019.039.058.077.077.116a2.441,2.441,0,0,0,.212.328l.116.212a.856.856,0,0,0,.231.289l.578-.289.1-.058a1.08,1.08,0,0,1,.251-.154l2.352-1.311a4.362,4.362,0,0,0,.386-.251l.019-.1-.443-1.234c-.019-.077-.039-.116-.039-.135a.8.8,0,0,1-.019-.212,1.677,1.677,0,0,1,.212-.154l.289-.116c.1.193.193.328.27.463s.116.231.173.309c.019.039.039.1.058.135l.559,1.08c.116.27.309.636.54,1.079l.1.173a3.753,3.753,0,0,0,.231.347A16.325,16.325,0,0,0,281.865,140.625Zm-7.307-13.92a6.185,6.185,0,0,0-.289-1.176l-.135-.328c-.116-1.369-.212-2.217-.251-2.564a.785.785,0,0,0-.212.019c-.077.019-.212.039-.424.077v.617a1.577,1.577,0,0,1-.1.79.424.424,0,0,1-.308.173,1.8,1.8,0,0,1-.636-.077c-1.118-.212-1.832-.347-2.14-.424l-.5-3.258,1.581-.945.771-.482a1.1,1.1,0,0,1,.231-.077.326.326,0,0,1,.193.058,1.544,1.544,0,0,1,.251.463l.366.925a2.943,2.943,0,0,0,.579-.058l-.077-.424-.309-1.446a6.944,6.944,0,0,1-.173-.964c-.058-.4-.116-.868-.154-1.388a13.655,13.655,0,0,0-.154-1.407c-.058,0-.135.019-.193.019-.077.019-.231.058-.424.115a2.688,2.688,0,0,0-.058.791,1.277,1.277,0,0,1-.1.54,1.579,1.579,0,0,1-.385.328,11.285,11.285,0,0,1-1.022.636c-.5.289-.887.5-1.118.655-.424.27-.964.6-1.619.964s-1.35.79-2.024,1.253l-3.278,2.044-.154.1.039.385c.039.174.058.347.1.54l5.629,1.176,4.8,1a1.466,1.466,0,0,1,.54.289,2.782,2.782,0,0,1,.347.771,4.368,4.368,0,0,0,.231.54l.6-.077Zm-5.417-3.085c-.193-1.35-.309-2.121-.347-2.371l-.039-.212c-.5.251-1.041.559-1.677.945s-1.1.694-1.446.925Zm3.759-11.914c.077-.867.154-1.6.231-2.217l.251-1.446a9.376,9.376,0,0,0,.116-1.465,5.5,5.5,0,0,0-.231-1.581,3.2,3.2,0,0,0-.655-1.137,2.128,2.128,0,0,0-.771-.655,3.564,3.564,0,0,0-1.157-.385,2.511,2.511,0,0,0-1.812.424,3.481,3.481,0,0,0-1.35,1.832,6.046,6.046,0,0,0-.4-1.176,2.434,2.434,0,0,0-.655-.81,2.175,2.175,0,0,0-.925-.366,3.545,3.545,0,0,0-.906.019,1.926,1.926,0,0,0-.829.385,2.43,2.43,0,0,0-.675.656,3.232,3.232,0,0,0-.385.655,5.886,5.886,0,0,0-.4,1.407l-.077.54c-.058.251-.058.386-.077.443a.716.716,0,0,0-.019.212l-.039.328-.308,2.815-.231,1.928.617.058c.116-.443.193-.713.231-.829a1.2,1.2,0,0,1,.173-.5.337.337,0,0,1,.1-.077,2.873,2.873,0,0,1,.809.019c1.6.193,2.6.309,2.988.366l3.644.5a11.318,11.318,0,0,1,1.408.27,1.4,1.4,0,0,1,.366.212,5.038,5.038,0,0,1,.1.925v.5l.694.116c.116-1.06.173-1.716.193-1.966Zm-6.15-2.853c.058-.27.116-.54.154-.81a3.327,3.327,0,0,0-.193-2.024,1.826,1.826,0,0,0-1.542-.887,1.847,1.847,0,0,0-1.465.424,2.905,2.905,0,0,0-.829,1.812c-.019.251-.039.578-.039.964.135.019.309.058.578.077.5.039,1.157.116,2.044.251l.733.135a2.616,2.616,0,0,1,.559.058Zm5.475.636a2.78,2.78,0,0,0,.386-1,3.631,3.631,0,0,0-.077-1.639,1.99,1.99,0,0,0-.694-1.022,3.09,3.09,0,0,0-1.292-.482,2.751,2.751,0,0,0-1.369.116,2.125,2.125,0,0,0-1.06.906,5.265,5.265,0,0,0-.482,1.793,1.652,1.652,0,0,0-.019.752l1.041.135,1.272.212,1.986.251a.427.427,0,0,0,.308-.022Zm2.834-8.907c.173-.559.308-.983.424-1.272l.617-1.41c.309-.617.5-.945.54-1.022.039-.058.077-.135.116-.193a1.688,1.688,0,0,1,.1-.289l.058-.173c-.1-.039-.173-.077-.27-.116a3.358,3.358,0,0,0-.4-.135c-.154.27-.251.424-.27.463a5.433,5.433,0,0,1-.5.848.326.326,0,0,1-.193-.058l-.308-.116-1.62-.655-1.06-.463-2.121-.848c-.5-.193-1.176-.482-2.082-.868-.193-.058-.386-.116-.579-.193a2.4,2.4,0,0,1-.578-.309A3.5,3.5,0,0,1,267.01,93a6.625,6.625,0,0,0,.077-.829A1.919,1.919,0,0,1,266.74,92l-.251-.077-.251.752c-.231.713-.424,1.234-.54,1.542q-.058.116-.231.521l-1.06,2.294.694.27c.039-.058.077-.174.135-.27a3.406,3.406,0,0,1,.636-1,1.542,1.542,0,0,1,.289.058l.347.116.925.347.424.193,1.06.4c.039.019.578.251,1.62.713l.443.174,1.812.752.945.385a1.369,1.369,0,0,1,.617.424,3.413,3.413,0,0,1-.039.887c-.038.27-.058.463-.077.6l.6.231c.039-.116.116-.347.231-.733ZM278.7,92.6c.463-.733.868-1.35,1.253-1.851l.887-1.157a10.54,10.54,0,0,0,.79-1.253,8.041,8.041,0,0,0,.54-1.485,3.865,3.865,0,0,0-.039-1.33,2.309,2.309,0,0,0-.386-.925,4.532,4.532,0,0,0-.829-.887,2.534,2.534,0,0,0-1.812-.463,3.606,3.606,0,0,0-2.044.983,8.9,8.9,0,0,0,.193-1.253,2.694,2.694,0,0,0-.212-1.022,2.176,2.176,0,0,0-.636-.752,2.662,2.662,0,0,0-.81-.4,2.052,2.052,0,0,0-.906-.058,3.105,3.105,0,0,0-.906.289,4.606,4.606,0,0,0-.655.4,5.681,5.681,0,0,0-1,1.041l-.328.443c-.154.193-.231.328-.27.366a.452.452,0,0,0-.115.173l-.193.27L269.6,86.1l-1.1,1.6.521.347.6-.636a1.169,1.169,0,0,1,.386-.366.158.158,0,0,1,.135-.019,4.088,4.088,0,0,1,.694.4c1.33.925,2.14,1.485,2.448,1.716l3.008,2.14c.386.289.752.578,1.118.906a1.365,1.365,0,0,1,.231.347,3.4,3.4,0,0,1-.347.867c-.077.173-.154.328-.212.463l.54.4c.578-.906.945-1.465,1.08-1.677Zm-4.087-5.417a4.172,4.172,0,0,0,.521-.636,3.612,3.612,0,0,0,.771-1.87,1.9,1.9,0,0,0-.945-1.5,1.774,1.774,0,0,0-1.485-.309,2.826,2.826,0,0,0-1.581,1.215,7.431,7.431,0,0,0-.482.848,5.509,5.509,0,0,1,.463.328c.424.27.983.655,1.677,1.176l.578.443a2.307,2.307,0,0,1,.486.305Zm4.531,3.162a2.846,2.846,0,0,0,.81-.713,3.714,3.714,0,0,0,.713-1.465,1.828,1.828,0,0,0-.135-1.234,2.772,2.772,0,0,0-.925-1.022,2.4,2.4,0,0,0-1.273-.521,2.125,2.125,0,0,0-1.369.309,5.629,5.629,0,0,0-1.272,1.35,2.785,2.785,0,0,0-.386.655l.867.617,1.041.771,1.62,1.137a.854.854,0,0,0,.308.116ZM288.13,68.81c.617-.251,1.022-.308,1.215-.193a5.409,5.409,0,0,1,.81,1.465l1.658,3.779a13.279,13.279,0,0,0,.867,1.639,2.973,2.973,0,0,0,2.95,1.388,6.517,6.517,0,0,0,2.256-.6,7.287,7.287,0,0,0,1.774-1.08A4.656,4.656,0,0,0,300.739,74a3.224,3.224,0,0,0,.424-1.253,2.931,2.931,0,0,0-.058-1,18.073,18.073,0,0,0-.848-2.217l-.79-1.581c-.173-.386-.366-.771-.559-1.137a1.715,1.715,0,0,1-.154-.328c-.038-.1-.115-.251-.193-.443-.135-.328-.27-.54-.328-.675a4.113,4.113,0,0,1-.212-.4.333.333,0,0,1-.019-.328,2.424,2.424,0,0,1,.54-.366,2.954,2.954,0,0,0,.578-.366.551.551,0,0,0-.077-.231,1.564,1.564,0,0,0-.193-.347l-.135.039a12.584,12.584,0,0,1-1.446.713l-1.542.6-.636.27.251.617.1-.019.733-.347a1.069,1.069,0,0,1,.694,0c.135.058.27.251.443.559l.212.385c.848,1.542,1.562,2.95,2.121,4.222a6.523,6.523,0,0,1,.578,1.7,4.188,4.188,0,0,1-.039.983,1.632,1.632,0,0,1-.27.655,2.463,2.463,0,0,1-.559.694,6.7,6.7,0,0,1-1.33.829,3.1,3.1,0,0,1-1.446.251,1.848,1.848,0,0,1-1-.347,3.3,3.3,0,0,1-1.022-1.272l-.983-1.928L293,70.544l-.328-.617-.309-.752-.135-.289a4.256,4.256,0,0,1-.193-.4,2.824,2.824,0,0,1-.328-.983.882.882,0,0,1,.521-.443,7.731,7.731,0,0,0,.887-.463l-.019-.058-.231-.463-.058-.1a3.789,3.789,0,0,1-.636.289c-.309.154-.655.328-1.06.521s-.81.386-1.234.559c-.115.058-.54.231-1.253.5-.289.116-.579.231-.848.347-.1.058-.193.1-.289.154l.308.617a2.558,2.558,0,0,0,.339-.153Zm18.007-6.266a2.242,2.242,0,0,1,.694.443.808.808,0,0,1,.212.347,4.159,4.159,0,0,1,.173,1.388l.1,1.754.1,2.8v.5c0,.193.019.752,0,1.677,0,.309-.019.5-.135.578a1.968,1.968,0,0,1-.848.135h-.347a1.468,1.468,0,0,0-.4.058v.328c0,.1.019.212.019.347a1.547,1.547,0,0,0,.308.019l.5-.039c.308-.039.925-.077,1.832-.135.983.058,1.581.1,1.754.077l.347-.019-.058-.733-.231-.058a7.39,7.39,0,0,1-1.465-.135c-.058-.115-.1-.212-.116-.251a1.909,1.909,0,0,1-.039-.328c-.077-.559-.115-1.06-.154-1.523l-.1-1.118v-.617c0-.212,0-.4-.019-.6l-.193-3.22,1.446,1.234c.6.5,1.253,1.1,2.005,1.754l1.118,1.079,1.523,1.427,2.178,2,1.079,1.041.983-.077-.019-.463a4.275,4.275,0,0,0-.058-.424l.019-.463-.039-.463-.039-1.06a3.741,3.741,0,0,0-.019-.463l-.193-3.027c0-.193-.039-.366-.039-.521-.058-.482-.1-1.157-.135-1.986-.019-.386-.039-.617-.039-.733-.019-.212-.039-.328-.039-.366a.489.489,0,0,1,.077-.328,3.743,3.743,0,0,1,.443-.328,4,4,0,0,1,.636-.193,1.4,1.4,0,0,0,.386-.173l-.039-.559a2.607,2.607,0,0,0-.366.019l-1.87.116-1.716.1-.212.038v.5a2.272,2.272,0,0,0,.713.173,1.472,1.472,0,0,1,.848.27,1.077,1.077,0,0,1,.135.675c0,.116.058.559.154,1.311a9.733,9.733,0,0,1,.1,1.292c.039.482.077.887.1,1.234s.077.81.116,1.407l.058,1v.212c-3.624-3.374-5.745-5.34-6.323-5.919s-1.33-1.234-2.256-2.024h-.27c-.058,0-.212.019-.54.039s-.482.039-.521.039h-.81c-.116,0-.386.019-.713.058h-.251l-.752.039.058.6c.366.058.771.135,1.157.231Zm16.137,10.681q.868.144,1.33.231l1.485.386c.655.231,1,.366,1.079.4a.947.947,0,0,0,.212.077,2.881,2.881,0,0,1,.328.058.449.449,0,0,1,.154.039,1.665,1.665,0,0,1,.1-.289,1.607,1.607,0,0,0,.058-.424,3.591,3.591,0,0,1-.482-.212,5.343,5.343,0,0,1-.906-.385.691.691,0,0,1,.039-.193l.077-.328.4-1.677.308-1.118.54-2.217c.116-.521.308-1.234.578-2.179.019-.154.077-.347.116-.6a3.3,3.3,0,0,1,.193-.617c.193,0,.463-.039.771-.019s.579-.019.829-.019c.039-.154.077-.289.1-.386s.039-.154.058-.27c-.115-.019-.366-.077-.771-.135-.752-.154-1.273-.251-1.6-.328l-.559-.154-2.372-.713-.154.752a1.7,1.7,0,0,0,.289.1,3.624,3.624,0,0,1,1.079.482v.289l-.1.366-.193.964-.135.443-.27,1.118c0,.039-.154.6-.482,1.716l-.116.463-.482,1.909-.251,1a1.7,1.7,0,0,1-.328.675,3.528,3.528,0,0,1-.906.1h-.578l-.154.6ZM333.4,65.3a2.43,2.43,0,0,1,.6.482,1.122,1.122,0,0,1,.154.424c0,.1-.019.733-.1,1.909l-.231,2.545-.289,4.01c-.135,1.157-.212,1.812-.251,2a5.517,5.517,0,0,0-.077.559l.4.231a2.393,2.393,0,0,0,.385.193c.251-.212.694-.636,1.292-1.234l.154-.1c.482-.424.771-.655.848-.733.289-.27.578-.5.81-.713a7.468,7.468,0,0,0,.713-.617l2.333-2a22.274,22.274,0,0,1,1.967-1.6,1.369,1.369,0,0,1,.347-.154,8.491,8.491,0,0,1,1.408.135,1.948,1.948,0,0,0,.135-.289l.154-.251c-.193-.1-.463-.193-.771-.328a8.389,8.389,0,0,1-1.118-.521,14.381,14.381,0,0,1-1.253-.752c-.424-.289-.675-.443-.752-.482a2.075,2.075,0,0,0-.212.347,1.113,1.113,0,0,0-.077.27c.077.058.173.116.289.193a1.227,1.227,0,0,1,.251.193,1.667,1.667,0,0,1,.617.6.292.292,0,0,1,.019.328,1.843,1.843,0,0,1-.443.5c-.212.193-.5.482-.887.848a1.784,1.784,0,0,1-.27.27l-.521.424-2.236,2.044-1.041.848a12.408,12.408,0,0,0,.115-1.33l.193-2.429a19.18,19.18,0,0,1,.231-2.583l.116-.791a.287.287,0,0,1,.077-.173.273.273,0,0,1,.173-.154,1.188,1.188,0,0,1,.636.019,8.521,8.521,0,0,1,.945.347c.019-.039.115-.27.308-.636l-.559-.289a7.868,7.868,0,0,1-.809-.328c-.482-.212-.791-.366-.945-.443-.829-.424-1.639-.906-2.429-1.407-.058-.039-.212-.135-.463-.27l-.366.675Zm13.9,8.1a1.93,1.93,0,0,0,.251.289,5.744,5.744,0,0,1,.578.771.946.946,0,0,1,.135.212.461.461,0,0,1,.1.27.582.582,0,0,0-.1.135l-.733.79-.713.675-.964,1-.713.675-2.333,2.275-.174.173c-.173.173-.308.289-.366.366a1.6,1.6,0,0,1-.52.366,5.577,5.577,0,0,1-1.06-.694,3.594,3.594,0,0,0-.54-.4l-.424.424.752.733.251.251c.752.694,1.35,1.272,1.851,1.774q1.446,1.5,2.429,2.6c.945,1.06,1.523,1.677,1.735,1.928.154.154.386.366.636.617l.81-.579,1.388-.906.231-.135.289-.231a2.215,2.215,0,0,0-.212-.212,2.483,2.483,0,0,0-.328-.309,4.319,4.319,0,0,1-1.832.424,2.185,2.185,0,0,1-1.137-.347,11.553,11.553,0,0,1-1.562-1.35,6.967,6.967,0,0,1-1.388-1.7.505.505,0,0,1,.154-.5l1.35-1.272c.347-.328.752-.713,1.234-1.2a2.222,2.222,0,0,1,.212-.212,18.739,18.739,0,0,1,1.427,1.35,6.744,6.744,0,0,1,.848.964.594.594,0,0,1,.077.4,3.159,3.159,0,0,1-.521.925,2.516,2.516,0,0,0-.308.482l.424.443.135-.116c.116-.116.309-.309.521-.559.251-.251.4-.443.521-.54s.193-.173.309-.27.424-.385.848-.81c.193-.193.482-.463.829-.848l-.366-.347-.1-.077a8.21,8.21,0,0,1-1.118.675.933.933,0,0,1-.463.058,1.878,1.878,0,0,1-.694-.482c-.347-.308-.868-.79-1.562-1.523-.077-.077-.154-.173-.251-.289l.771-.752,1.06-1c.713-.694,1.118-1.08,1.215-1.2.385.386.848.829,1.33,1.35a17.036,17.036,0,0,1,1.157,1.292c.193.251.308.366.347.424a2.5,2.5,0,0,1,.347.443,3.916,3.916,0,0,1-.193.945l-.193.694a5.08,5.08,0,0,0-.212.52c.1.116.154.193.193.231l.27.251c.058-.058.116-.077.116-.1l.251-.27,1.311-1.253a.69.69,0,0,0,.212-.424,9.694,9.694,0,0,0-.983-1.215l-1.1-1.118c-.733-.771-1.542-1.562-2.487-2.468-.617-.6-.983-.964-1.137-1.118a10.486,10.486,0,0,1-1.041-1.215c-.135-.193-.328-.424-.54-.675Zm2.044,17.274a1.929,1.929,0,0,0-.27.154l.193.328a9.476,9.476,0,0,0,.463.867l.617,1.041a2.321,2.321,0,0,0,.154.289c.1.212.366.887.81,2.044l.174.328a1.673,1.673,0,0,0,.1.193,5.487,5.487,0,0,0,.6-.251,6.238,6.238,0,0,0-.231-1.2,1.972,1.972,0,0,1-.077-.675l1.5-.655,1.7-.887a3.229,3.229,0,0,1,.54-.231,3.616,3.616,0,0,0,.289.521,1.671,1.671,0,0,1,.231.887,3.782,3.782,0,0,1-.6.964c-.829,1.1-1.446,1.87-1.832,2.333-.135.193-.366.482-.636.887l-.385.5a1.82,1.82,0,0,0,.193.328,4.9,4.9,0,0,1,.308.521l.386.791a6.774,6.774,0,0,1,.27.636l.154.309.135.424.1.154.077.212a.573.573,0,0,0,.193-.077.862.862,0,0,0,.212-.154,1.872,1.872,0,0,0,0-.656,2.334,2.334,0,0,1,0-.733,5.96,5.96,0,0,1,.636-1.06l1.427-2.236c.154-.231.328-.54.521-.906a4.468,4.468,0,0,1,.289-.443A3.242,3.242,0,0,0,359.3,96.3a2.471,2.471,0,0,0,1.658-.193,2.664,2.664,0,0,0,1.407-1.851,4.19,4.19,0,0,0-.424-2.93c-.309-.636-.655-1.272-1.022-1.889l-.521-.945-.212-.4c-.019-.039-.1-.251-.27-.636-.193-.366-.308-.6-.366-.713a4.069,4.069,0,0,0-.4-.694l-.1.019-.463.231c.058.154.173.443.328.887l.135.5c-.289.174-.983.521-2.044,1.041-.5.251-1.022.482-1.581.752l-.424.193-.733.366-.945.424-1.716.848c-.443.212-.675.328-.752.366a2.512,2.512,0,0,1-.251.058,4.159,4.159,0,0,1-.521-.636,1.7,1.7,0,0,0-.463-.521,2.094,2.094,0,0,0-.27.1Zm6.979.964c.1.27.193.443.231.559a3.18,3.18,0,0,0,1.388,1.658,1.678,1.678,0,0,0,1.542-.077,3.191,3.191,0,0,0,.829-.578,1.616,1.616,0,0,0,.482-.655,2.417,2.417,0,0,0,.1-.983,4.9,4.9,0,0,0-.424-1.157,3.708,3.708,0,0,0-.347-.6l-.154.058-1.022.521-.655.289-.848.424c-.251.1-.54.251-.945.424Zm10.16,14.093a6.526,6.526,0,0,0-.1-1.234,4,4,0,0,0-1.5-2.68,3.21,3.21,0,0,0-2.468-.521,3.66,3.66,0,0,0-1.33.617,3.219,3.219,0,0,0-.983,1.176,9.066,9.066,0,0,0-.559,2.352,7.488,7.488,0,0,1-.5,2.1,1.673,1.673,0,0,1-1.06.81,1.693,1.693,0,0,1-1.022-.154,1.908,1.908,0,0,1-.81-.752,3.116,3.116,0,0,1-.4-.983,2.414,2.414,0,0,1,0-.983,1.991,1.991,0,0,1,.27-.848,2.938,2.938,0,0,1,.578-.713,10.479,10.479,0,0,1,1.06-.752l-.173-.771-.328.058c-.154.019-.4.077-.771.154a10.039,10.039,0,0,1-1.157.251l-.1.019c-.077.039-.135.077-.135.116a3.055,3.055,0,0,0-.116.578l-.116,1.08a7.5,7.5,0,0,0,.116,1.465,5.461,5.461,0,0,0,.443,1.446,4.629,4.629,0,0,0,.713,1.022,4.953,4.953,0,0,0,.752.675,2.452,2.452,0,0,0,.867.366,4.262,4.262,0,0,0,1.639-.019,3.576,3.576,0,0,0,1.176-.424,3.521,3.521,0,0,0,.887-.887,3.7,3.7,0,0,0,.521-1.272,7.925,7.925,0,0,0,.231-1.35,4.926,4.926,0,0,1,.559-2.217,1.548,1.548,0,0,1,.964-.694,1.524,1.524,0,0,1,1.176.27,2.123,2.123,0,0,1,.713,1.215,2.052,2.052,0,0,1-.4,1.658,4.784,4.784,0,0,1-1.369,1.041v.1l.1.636.039.077a1.881,1.881,0,0,0,.328-.019,10.781,10.781,0,0,0,1.349-.366c.366-.135.656-.231.848-.328.039-.4.077-.868.077-1.311Zm-10.661,7.037c.058.578.077,1.041.077,1.33l-.058,1.542c-.077.694-.116,1.079-.135,1.157a.825.825,0,0,0-.039.212c0,.019,0,.135.019.328v.154a1.915,1.915,0,0,0,.289.019c.116,0,.27-.019.424-.019a3.971,3.971,0,0,0,.077-.54,7.785,7.785,0,0,1,.173-.964c.1,0,.154-.019.193-.019h.328l1.735.019,1.157.039,2.294.019c.52.019,1.272.039,2.256.077.193-.019.4-.019.6-.019a3.767,3.767,0,0,1,.655.058c.1.251.154.482.231.733a3.672,3.672,0,0,0,.212.791,3.423,3.423,0,0,0,.366.039h.27c0-.116-.019-.386-.039-.791-.039-.771-.039-1.311-.039-1.639a4.406,4.406,0,0,1,.039-.578l.135-2.468h-.752a1.7,1.7,0,0,0-.039.309,3.327,3.327,0,0,1-.212,1.157l-.289.058h-.366l-.983.019-.463-.039h-1.157c-.039,0-.617-.039-1.754-.1h-.482l-1.986-.058h-1.022a1.637,1.637,0,0,1-.733-.173,3.341,3.341,0,0,1-.27-.848c-.058-.27-.1-.463-.135-.578h-.636c0,.135.019.386.058.771Zm10.565,9.717a17.04,17.04,0,0,1-2-1.311,1.8,1.8,0,0,0-.443.4c-.019.077.039.193.174.386a5.165,5.165,0,0,1,.848,1.369,2.578,2.578,0,0,1-.135,1.1,15.386,15.386,0,0,1-.5,1.677.164.164,0,0,1-.058.1.158.158,0,0,1-.135.019,11.371,11.371,0,0,1-1.6-.385l-3.181-.81c-1.465-.385-2.506-.694-3.181-.906a1.088,1.088,0,0,1-.386-.212,9.969,9.969,0,0,1-.058-1.311,1.25,1.25,0,0,0-.154-.79l-.077-.019-.193-.058a1.1,1.1,0,0,1-.193-.039c-.019.1-.077.309-.135.636-.154.829-.251,1.35-.289,1.5-.289,1.06-.5,1.774-.655,2.178q-.26.723-.463,1.446a1.82,1.82,0,0,1-.077.308.72.72,0,0,0,.212.077,2.344,2.344,0,0,0,.366.039,4.629,4.629,0,0,0,.251-.4,4.043,4.043,0,0,0,.289-.578,5.265,5.265,0,0,1,.251-.463,1.953,1.953,0,0,1,.887.135l1.1.289,2.66.694,2.449.655,1.138.309a2.747,2.747,0,0,1,.52.173c-.039.193-.077.4-.135.6a14.082,14.082,0,0,1-.521,1.754.671.671,0,0,1-.193.212,3.391,3.391,0,0,1-.771.135,4.952,4.952,0,0,0-1.06.231,3.526,3.526,0,0,0-.039.636,2.252,2.252,0,0,0,.385.135l.424.116.733.212c.791.193,1.369.347,1.754.443.039-.1.058-.193.077-.251l.1-.366a2.028,2.028,0,0,0-.212-.154,1.878,1.878,0,0,1-.347-.328l.058-.521.694-2.583.5-1.889.27-1.022.039-.154c.1-.347.193-.713.309-1.157.173-.694.289-1.06.308-1.137a4.111,4.111,0,0,1,.636-.212.566.566,0,0,0,.173-.039l.135-.521a4.555,4.555,0,0,0-.552-.35Zm-4.723,14.672a.43.43,0,0,1-.1-.077.277.277,0,0,0-.135-.039c-.347.347-.521.521-.578.559a1.025,1.025,0,0,1-.328.154c-.54.039-.829.058-.887.058l-1.5-.019-3.085.019a2.368,2.368,0,0,0-.521.039,2.223,2.223,0,0,1-1.369-.193l-.173-.1c-.039-.039-.212-.135-.482-.309s-.771-.5-1.523-.983l-.424-.27c.019-.058.019-.135.039-.212l.6-1.523a2.39,2.39,0,0,0-.231-.154,1.428,1.428,0,0,0-.231-.135l-.328.5a3.308,3.308,0,0,0-.308.578,1.049,1.049,0,0,1-.193.347l-.386.6-.52.829-.366.52-.579.733-.578.829a1.176,1.176,0,0,0,.193.135.91.91,0,0,0,.173.116.2.2,0,0,0,.173.039,2.609,2.609,0,0,0,.617-.694,5.611,5.611,0,0,1,.385-.424.287.287,0,0,1,.135-.019l1.87,1.176a2.567,2.567,0,0,1,.366.27l.193.116.617.424.231.154a.728.728,0,0,1,.173.289c.173.328.463,1.06.867,2.121l.791,1.87a5.283,5.283,0,0,1,.617,1.658,2.589,2.589,0,0,1-.27,1l-.019.116.54.347c.039-.077.077-.135.116-.212.154-.27.251-.482.347-.655l.077-.116.231-.347a.521.521,0,0,1,.135-.154l1.041-1.446a3.069,3.069,0,0,0-.559-.289l-.193.193a2.981,2.981,0,0,1-.231.251.857.857,0,0,1-.231.289.4.4,0,0,1-.193.116c-.058-.019-.1-.039-.154-.058a1.261,1.261,0,0,1-.231-.328l-.694-1.33v-.077c-.347-.791-.6-1.407-.752-1.87l-.578-1.427a4.665,4.665,0,0,1,.521-.019h.81c.559.019.867.019.945.019h.906a12.842,12.842,0,0,1,2.275.019l.1.077v.058c-.1.231-.193.4-.251.54l-.154.347a2.185,2.185,0,0,0-.154.463l.366.251.173.058.039-.058.058-.116a8.866,8.866,0,0,1,.675-1.176c.251-.366.559-.829,1.022-1.407a6.22,6.22,0,0,1,.443-.559l.039-.1c.039-.039.1-.116.193-.231l.058-.058a4.6,4.6,0,0,0,.54-.945,1.344,1.344,0,0,0-.205-.151Z" transform="translate(-257.264 -56.664)" fill="#fff" fill-rule="evenodd"/>
      </g>
    </g>
    <line id="Line_1" data-name="Line 1" y2="119" transform="translate(135.5 41.5)" fill="none" stroke="#fff" stroke-width="2"/>
    <text id="Academic_Affairs" data-name="Academic Affairs" transform="translate(149 112)" fill="#fff" font-size="30" font-family="OpenSans-Bold, Open Sans" font-weight="700"><tspan x="0" y="0">Academic Affairs</tspan></text>
  </g>
</svg>
